<svg xmlns="http://www.w3.org/2000/svg" width="14.069" height="13.429" viewBox="0 0 14.069 13.429">
  <g id="Star_" data-name="Star " transform="translate(-0.965 -0.63)" fill="none" stroke-miterlimit="10">
    <path d="M8,12,4.194,14a.5.5,0,0,1-.725-.527L4.151,9.5a.5.5,0,0,0-.144-.443L1.117,6.235a.5.5,0,0,1,.277-.853L5.389,4.8a.5.5,0,0,0,.376-.274L7.552.908a.5.5,0,0,1,.9,0l1.786,3.62a.5.5,0,0,0,.376.274l3.995.58a.5.5,0,0,1,.277.853L11.992,9.053a.5.5,0,0,0-.144.443l.682,3.978a.5.5,0,0,1-.725.527Z" stroke="none"/>
    <path d="M 4.625847339630127 12.64412403106689 L 8 10.87023448944092 L 11.37414741516113 12.64412021636963 L 10.86305046081543 9.664204597473145 C 10.77958011627197 9.177524566650391 10.94083976745605 8.681195259094238 11.29444980621338 8.336494445800781 L 13.45948314666748 6.226109027862549 L 10.46743011474609 5.791334629058838 C 9.978790283203125 5.720314979553223 9.556599617004395 5.413564682006836 9.338069915771484 4.970784664154053 L 8.000000953674316 2.25955605506897 L 6.661930084228516 4.97077465057373 C 6.443399906158447 5.413564682006836 6.021210193634033 5.720314979553223 5.532529830932617 5.79134464263916 L 2.540516376495361 6.226109027862549 L 4.705570220947266 8.336514472961426 C 5.059160232543945 8.681195259094238 5.220419883728027 9.177524566650391 5.136950016021729 9.664204597473145 L 4.625847339630127 12.64412403106689 M 12.03831100463867 14.05924034118652 C 11.96142673492432 14.05924034118652 11.88214015960693 14.04096221923828 11.80554962158203 14.00069522857666 L 8 12.00000476837158 L 4.194449901580811 14.00069522857666 C 3.827640056610107 14.1935453414917 3.398920059204102 13.88205528259277 3.468980073928833 13.47360515594482 L 4.151340007781982 9.49515438079834 C 4.179160118103027 9.332954406738281 4.125380039215088 9.167454719543457 4.007540225982666 9.052584648132324 L 1.117020010948181 6.235024929046631 C 0.8202599883079529 5.945755004882812 0.9840199947357178 5.441774845123291 1.394129991531372 5.382184982299805 L 5.388730049133301 4.801734924316406 C 5.55157995223999 4.778064727783203 5.692359924316406 4.675784587860107 5.765190124511719 4.528214931488037 L 7.551630020141602 0.9084948301315308 C 7.735039710998535 0.5368747711181641 8.264959335327148 0.5368747711181641 8.448369979858398 0.9084948301315308 L 10.23480987548828 4.528214931488037 C 10.30764007568359 4.675784587860107 10.44841957092285 4.778064727783203 10.6112699508667 4.801734924316406 L 14.60587024688721 5.382184982299805 C 15.0159797668457 5.441774845123291 15.1797399520874 5.945755004882812 14.88298034667969 6.235024929046631 L 11.99246025085449 9.052584648132324 C 11.87462043762207 9.167454719543457 11.82083988189697 9.332954406738281 11.84866046905518 9.49515438079834 L 12.53102016448975 13.47360515594482 C 12.58645153045654 13.7967700958252 12.32964515686035 14.05924034118652 12.03831100463867 14.05924034118652 Z" stroke="none" fill="#f5be18"/>
  </g>
</svg>
